<?xml version="1.0" encoding="utf-8"?>
<!-- Generator: Adobe Illustrator 24.3.0, SVG Export Plug-In . SVG Version: 6.00 Build 0)  -->
<svg version="1.1" id="Layer_1" xmlns="http://www.w3.org/2000/svg" xmlns:xlink="http://www.w3.org/1999/xlink" x="0px" y="0px"
	 viewBox="0 0 386.3 269.8" style="enable-background:new 0 0 386.3 269.8;" xml:space="preserve">
<style type="text/css">
	.st0{fill:#FFFFFF;}
	.st1{fill:#131313;}
</style>
<g>
	<path d="M76.4,63.8c1.7-4.6,2.9-8.7,4.7-12.5c0.9-1.8,2.8-3.5,4.6-4.2c11-4.7,22.1-9.1,33.1-13.6c7.8-3.2,15.9-2.3,23.6-0.5
		c3.7,0.9,7.7,4.4,9.9,7.8c5.8,9.2,13.5,14.9,24.3,16.3c8.5,1.1,16.9,3.3,25.4,3.3c4.8,0,7.5,2.9,11.3,4c9.1,2.6,18,5.6,27.1,8.2
		c15.8,4.5,30.4,11.6,40.4,24.9c6.7,8.9,11.8,19.4,11.5,31.3c-0.1,3.3,1,5,4.8,6c4.8,1.4,9.6,3.9,13.5,7.1
		c6.2,5.2,11.7,11.3,17.5,17.1c5.2,5.3,6.1,12.3,8.1,19c1.6,5.3,4.3,10.3,7,15.1c1,1.7,3.8,2.4,5.5,3.8c1.1,0.9,1.8,2.4,2.6,3.6
		c-1.3,0.6-2.8,2-4,1.8c-20.2-3.9-40.5-1-60.7-2.1c-8.4-0.5-16.8-1.4-25.7-2.2c0,4.7,0,9.3,0,14.3c1.2,0.3,2.7,0.6,4.1,1
		c7,1.9,11.6,12.6,8,18.9c-0.4,0.7-1.7,1.3-2.4,1.1c-0.7-0.1-1.6-1.2-1.7-2c-0.3-2-0.1-4-0.2-6c-0.1-5-2.7-7.6-8.4-7.9
		c-0.3,4.5-0.5,8.8-1.1,13.2c-0.2,1.3-1.4,2.5-2.1,3.8c-0.8-1.2-2.3-2.3-2.3-3.5c-0.1-4.1,0.3-8.2,0.5-12.5
		c-6.2-2.2-9.3-1.2-12.4,4.7c-1.3,2.5-2.2,5.2-3.6,7.6c-0.5,0.8-2.1,1-3.2,1.5c-0.4-1-1.2-2-1.1-2.9c0.7-8.8,8.2-15.8,17.1-16.5
		c1.2-0.1,3.3-1.4,3.4-2.3c0.4-4.2,0.2-8.5,0.2-13.5c-2.5,0.6-4.3,0.8-5.9,1.4c-8.4,3.1-17,3.4-24.7-0.9
		c-10.9-6-21.1-13.2-31.5-19.9c-1.7-1.1-3.2-2.4-4.5-3.4c-5.5,7-10.9,13.8-16.8,21.2c0,0,0.8,1.1,1.9,2.1c3.8,3.4,5.6,7.7,5.8,12.8
		c0.1,2.3,1,4.5,1.1,6.8c0.1,1.1-0.8,2.2-1.2,3.3c-1.1-0.5-2.8-0.8-3.1-1.6c-0.9-2.3-1.5-4.7-1.7-7.2c-0.5-7.9-3.6-11.1-10.7-14.3
		c-5-2.3-9.8-2.4-14.8-2c-3.9,0.3-7,1.8-7.2,6.6c0,1.2-1.7,2.3-2.6,3.4c-0.7-1.3-1.8-2.5-1.9-3.8c-0.2-5.5,2.1-9.1,7.4-10.1
		c5-1,10.3-1.4,15.3-1c7.3,0.5,12.6-2.2,16.5-8.2c2.4-3.8,4.9-7.5,7.5-11.6c-1.7-0.7-3.1-1.3-4.6-1.9c0.3-0.3,0.6-0.7,1-1
		c-1.4-1.7-2.6-3.9-4.4-5c-8.9-5.6-10.3-14.9-12.7-23.9c-1.1-4.3-2.3-8.8-4.5-12.5c-5.1-8.4-12.2-13.2-22.8-11.8
		c-5.2,0.7-10.6-0.1-15.9-0.1c-12.5,0-22.8-5.3-31.8-13.6c-1.4-1.3-3.7-1.7-5.4-2.9c-6.4-4.6-12.3-9.9-19.1-13.9
		c-4.2-2.5-9.4-3.7-14.4-4.6c-4-0.7-8.4,0.3-12.5-0.2c-3.3-0.4-6.7-1.6-9.7-3.2c-1.6-0.9-2.2-3.4-3.2-5.2c1.7-0.7,3.4-1.8,5.1-2.1
		c7.8-1.3,15.7-2.7,23.6-3.5C61.4,64.4,69.2,64.2,76.4,63.8z M50.1,69.9c0,0.4-0.1,0.7-0.1,1.1c4.3,1.5,8.7,2.7,12.8,4.7
		c6.2,3.1,12.5,4.3,19.3,3.5c5.1-0.6,10.2-1.3,15.4-1.7c1.2-0.1,2.5,0.9,3.7,1.3c-0.9,1.1-1.7,2.9-2.9,3.2
		c-3.4,0.8-6.9,1.2-10.3,1.5c-4.5,0.4-9,0.7-13.5,1c-0.1,0.5-0.2,1.1-0.2,1.6c2.9,0.8,5.8,1.6,8.6,2.5c1.9,0.6,4.7,1.1,5.4,2.5
		c7,12.6,18.2,17.4,31.8,18.3c7.8,0.5,15.7,0.3,23.5,0.8c3.1,0.2,6.5,0.7,9,2.4c8,5.5,14.1,12.6,15.9,22.7c0.7,4.1,1.9,8.1,2.9,12.1
		c1.7,6.6,5.6,11.1,12.2,13.4c4,1.4,8.7,2.2,8,8.4c-0.1,0.8,1.3,1.9,2.2,2.5c9.6,6.3,19,12.9,28.9,18.6c8.1,4.7,17.1,6.5,26.4,3
		c2.8-1.1,6.9,0,7.7-4.5c1.2,0.4,2.5,0.6,3.6,1.3c1.1,0.7,1.7,2.5,2.8,2.7c7.2,1,14.5,2.4,21.8,2.5c16.2,0.2,32.3-0.4,48.5-0.6
		c1.2,0,2.4-0.1,2.8-0.1c-2.3-7.5-4.3-14.8-6.9-21.9c-1.4-4-3.3-8.1-6-11.2c-4.8-5.5-10.2-10.5-15.6-15.5c-4.5-4.2-9.7-6.8-16-6.5
		c-3.8,9.4-5.8,10.2-15.5,6.6c-0.6-0.2-1.3-0.4-1.9-0.7c-21.3-8.8-42.7-17.6-64-26.5c-3.8-1.6-7.5-3.5-11.2-5.4
		c-10.5-5.4-20.7-11.3-31.4-16.2c-7.9-3.6-12.7-9.5-16.1-16.9c-3.7-8.1,1.3-17.2,7.6-18.6c0.7-6.8-4.8-10.2-8-14.9
		c-7.7-11.5-15.8-12.4-29.3-8.5c-11.6,3.3-22.6,8.7-33.8,13.3c-3.4,1.4-7.2,9.2-5.4,11.9c4,6-0.2,5.3-3.9,5.5
		C69.2,69.1,59.6,69.5,50.1,69.9z M156.3,69c-0.4,2.4-1.5,4.9-0.9,7c1.9,6.8,5.6,12.3,12.1,15.7c11.9,6.1,23.8,12.4,35.7,18.6
		c2.5,1.3,5.1,2.5,7.7,3.4c1.2,0.4,2.7-0.1,4-0.2c-0.2-1.4,0-3.1-0.8-4.1c-1.1-1.5-2.8-2.7-4.4-3.9c-1.8-1.2-3.8-2-5.5-3.4
		c-3.3-2.6-2.9-5,1.1-6.6c3.2-1.3,6.6-2.3,9.7-3.9c1.4-0.7,2.8-2.5,3.2-4c0.8-3.1-10.1-20.2-13.3-20.8c-6.8-1.2-13.6-1.9-20.4-2.9
		c-2.4-0.4-4.9-0.8-7.2-1.5c-4.2-1.2-8.3-2.7-12.6-4.1c-0.7,4.3-1.1,7.7-1.9,11.1c-0.3,1.2-1.7,2.1-2.6,3.2
		C159.2,71.7,158.1,70.7,156.3,69z M215,71c11.2,15.3,12.7,21-4.5,28.8c9.5,6.7,10.7,9,9.2,17c7.4,4.4,14.8,7.9,23.4,2.6
		c2-1.2,4.7-1.4,7.2-1.9c6.5-1.3,8.3-3.3,6.3-9.5c-3-9.2-6.8-18.2-10.4-27.2c-0.4-1-1.8-2.1-2.9-2.4C234.1,76,224.8,73.6,215,71z
		 M285.8,138.5c-1.5-0.3-3.1-0.8-4.7-1c-4.6-0.8-9.2-1.3-13.8-2.3c-1.3-0.3-2.4-2.1-3.5-3.2c1.3-0.6,2.6-1.5,4-1.6
		c1.4-0.2,2.9,0.4,4.4,0.6c5,0.6,10.1,1.2,15.1,1.8c1.8-20.5-18.6-49.1-35.4-50.2c0.2,0.8,0.3,1.6,0.6,2.4c2.9,7.7,6.7,15.1,8.7,23
		c2.3,9.1-0.6,12.4-9.7,14.3c-4,0.8-7.8,2-11.7,3c0,0.5-0.1,0.9-0.1,1.4c13.9,5.2,27.9,10.5,41.9,15.6
		C284.3,143.4,286.1,142.1,285.8,138.5z"/>
	<path d="M155.9,219.6c0.9-5.8,1.3-10.6,2.5-15.3c0.4-1.6,2.5-2.8,4.1-3.8c0.3-0.2,2.6,1.7,2.5,2.3c-1.3,5.5-2.8,11-4.5,16.4
		c-0.3,1-2,1.6-3,2.4C156.8,220.7,156.1,219.8,155.9,219.6z"/>
	<path class="st0" d="M50.1,69.9c9.5-0.4,19.1-0.8,28.6-1.1c3.7-0.1,7.9,0.5,3.9-5.5c-1.8-2.7,2-10.5,5.4-11.9
		c11.2-4.6,22.2-10,33.8-13.3c13.5-3.9,21.6-3,29.3,8.5c3.1,4.7,8.7,8.2,8,14.9c-6.3,1.4-11.3,10.5-7.6,18.6
		c3.3,7.4,8.2,13.3,16.1,16.9c10.7,4.9,20.9,10.8,31.4,16.2c3.7,1.9,7.4,3.8,11.2,5.4c21.3,8.9,42.6,17.7,64,26.5
		c0.6,0.3,1.3,0.4,1.9,0.7c9.8,3.7,11.8,2.9,15.5-6.6c6.3-0.3,11.5,2.4,16,6.5c5.4,5,10.8,10,15.6,15.5c2.7,3.1,4.6,7.2,6,11.2
		c2.6,7.1,4.6,14.4,6.9,21.9c-0.4,0-1.6,0.1-2.8,0.1c-16.2,0.3-32.3,0.8-48.5,0.6c-7.3-0.1-14.5-1.4-21.8-2.5c-1-0.1-1.7-2-2.8-2.7
		c-1-0.7-2.4-0.9-3.6-1.3c-0.8,4.5-4.9,3.4-7.7,4.5c-9.3,3.5-18.3,1.7-26.4-3c-9.9-5.7-19.3-12.3-28.9-18.6
		c-0.9-0.6-2.3-1.8-2.2-2.5c0.8-6.2-4-7-8-8.4c-6.6-2.2-10.5-6.7-12.2-13.4c-1-4-2.2-8-2.9-12.1c-1.8-10.1-7.8-17.2-15.9-22.7
		c-2.4-1.7-5.9-2.2-9-2.4c-7.8-0.5-15.7-0.3-23.5-0.8c-13.5-0.9-24.8-5.7-31.8-18.3c-0.8-1.4-3.5-1.8-5.4-2.5
		c-2.8-0.9-5.7-1.7-8.6-2.5c0.1-0.5,0.2-1.1,0.2-1.6c4.5-0.3,9-0.5,13.5-1c3.5-0.3,7-0.7,10.3-1.5c1.2-0.3,1.9-2.1,2.9-3.2
		c-1.2-0.5-2.5-1.4-3.7-1.3c-5.1,0.4-10.2,1.1-15.4,1.7c-6.8,0.8-13.1-0.3-19.3-3.5c-4-2-8.5-3.2-12.8-4.7
		C50,70.6,50,70.2,50.1,69.9z"/>
	<path class="st0" d="M156.3,69c1.9,1.7,2.9,2.6,3.9,3.6c0.9-1,2.3-2,2.6-3.2c0.8-3.4,1.2-6.8,1.9-11.1c4.3,1.4,8.4,2.9,12.6,4.1
		c2.4,0.7,4.8,1.2,7.2,1.5c6.8,1,13.7,1.7,20.4,2.9c3.2,0.6,14.1,17.7,13.3,20.8c-0.4,1.5-1.8,3.3-3.2,4c-3.1,1.6-6.5,2.6-9.7,3.9
		c-3.9,1.6-4.3,3.9-1.1,6.6c1.7,1.3,3.8,2.1,5.5,3.4c1.6,1.1,3.3,2.3,4.4,3.9c0.7,1,0.5,2.7,0.8,4.1c-1.3,0.1-2.8,0.6-4,0.2
		c-2.7-0.9-5.2-2.1-7.7-3.4c-11.9-6.2-23.8-12.4-35.7-18.6c-6.5-3.4-10.3-8.9-12.1-15.7C154.8,73.9,155.9,71.4,156.3,69z"/>
	<path class="st0" d="M215,71c9.9,2.6,19.1,5,28.3,7.6c1.1,0.3,2.5,1.3,2.9,2.4c3.6,9,7.3,18,10.4,27.2c2,6.1,0.2,8.2-6.3,9.5
		c-2.4,0.5-5.2,0.7-7.2,1.9c-8.6,5.3-16,1.8-23.4-2.6c1.5-8,0.3-10.3-9.2-17C227.6,92,226.1,86.3,215,71z"/>
	<path class="st0" d="M285.8,138.5c0.3,3.6-1.5,4.9-4.2,3.9c-14-5.1-27.9-10.4-41.9-15.6c0-0.5,0.1-0.9,0.1-1.4
		c3.9-1,7.8-2.2,11.7-3c9.1-1.8,12-5.2,9.7-14.3c-2-7.9-5.7-15.4-8.7-23c-0.3-0.7-0.4-1.6-0.6-2.4c16.8,1.1,37.2,29.7,35.4,50.2
		c-5-0.6-10.1-1.2-15.1-1.8c-1.5-0.2-3-0.8-4.4-0.6c-1.4,0.2-2.7,1-4,1.6c1.2,1.1,2.2,2.9,3.5,3.2c4.5,1,9.2,1.6,13.8,2.3
		C282.7,137.8,284.3,138.2,285.8,138.5z"/>
	<ellipse class="st1" cx="110.3" cy="58.4" rx="3.4" ry="3.7"/>
</g>
</svg>
